<?xml version="1.0" standalone="no"?>
<!DOCTYPE svg PUBLIC "-//W3C//DTD SVG 20010904//EN"
 "http://www.w3.org/TR/2001/REC-SVG-20010904/DTD/svg10.dtd">
<svg version="1.0" xmlns="http://www.w3.org/2000/svg"
 width="800.000000pt" height="800.000000pt" viewBox="0 0 800.000000 800.000000"
 preserveAspectRatio="xMidYMid meet">
<metadata>
Created by potrace 1.16, written by Peter Selinger 2001-2019
</metadata>
<g transform="translate(0.000000,800.000000) scale(0.100000,-0.100000)"
fill="#000000" stroke="none">
<path d="M3728 6933 c-22 -36 -23 -47 -21 -183 1 -80 7 -251 14 -379 13 -258
8 -361 -20 -442 -15 -43 -294 -661 -415 -919 -14 -30 -26 -69 -26 -85 0 -52
30 -149 53 -173 25 -25 126 -47 449 -98 151 -24 179 -31 184 -47 3 -10 3 -21
0 -24 -8 -8 -342 44 -437 68 -202 50 -319 146 -307 252 3 24 53 145 113 277
130 284 161 361 185 464 11 43 31 96 45 116 69 100 88 238 60 435 -9 66 -20
123 -24 126 -3 4 -51 -53 -106 -126 -94 -126 -100 -136 -100 -181 l0 -48 -84
-42 c-121 -61 -222 -91 -357 -108 -159 -20 -233 -47 -339 -126 -126 -94 -278
-267 -329 -374 -90 -188 -191 -475 -243 -686 -44 -179 -72 -252 -177 -455 -95
-182 -112 -229 -126 -338 -14 -111 12 -271 52 -324 17 -21 -56 -26 -301 -19
-218 7 -242 6 -314 -13 -135 -35 -228 -91 -342 -206 -181 -181 -286 -411 -326
-712 -19 -143 -6 -442 25 -589 79 -372 268 -706 513 -903 183 -147 376 -217
575 -209 101 4 148 17 2593 715 1370 391 2519 716 2555 722 109 19 203 72 295
165 133 135 186 259 193 456 5 151 -10 226 -70 350 -33 68 -57 101 -122 165
-89 89 -163 133 -266 160 -60 16 -105 17 -640 5 l-575 -12 -180 31 c-99 17
-193 34 -208 37 -24 5 35 37 380 210 224 112 399 202 388 199 -11 -2 -193 -52
-404 -110 -211 -58 -387 -104 -392 -103 -4 2 57 163 136 358 79 195 143 356
142 357 -2 1 -79 -97 -172 -217 -94 -121 -172 -220 -175 -220 -3 0 -6 9 -7 21
-3 30 -30 68 -59 81 -20 10 -25 17 -21 37 3 15 29 179 57 366 29 187 67 435
85 550 18 116 32 211 30 213 -1 1 -64 -134 -139 -300 -76 -167 -135 -291 -132
-276 3 14 8 33 12 41 6 17 -7 23 -69 32 l-46 7 -30 -100 c-17 -54 -31 -102
-31 -106 0 -3 25 -6 55 -6 55 0 62 -4 46 -28 -7 -11 -23 -12 -87 -3 -44 7 -89
14 -101 16 -25 6 -22 13 -54 -133 -20 -92 -24 -101 -38 -88 -26 23 -108 44
-266 71 -116 20 -154 30 -172 47 -13 12 -21 23 -19 25 2 2 46 -3 97 -12 109
-19 177 -14 233 18 38 21 194 240 603 846 66 97 100 198 109 325 8 94 -3 156
-47 271 -36 93 -297 654 -314 673 -4 5 -992 252 -1008 252 -8 0 -26 -17 -39
-37z m576 -1294 c362 -84 527 -126 539 -138 16 -16 -10 -61 -79 -138 -51 -58
-110 -93 -132 -79 -5 3 -177 39 -381 81 -205 41 -377 77 -382 81 -16 9 -10 23
46 118 51 85 70 105 115 119 30 11 59 6 274 -44z m-1447 -787 l-54 -54 44 264
c23 145 46 279 50 298 5 20 9 -69 11 -210 l2 -244 -53 -54z m2174 -178 c-118
-767 -123 -796 -119 -800 2 -2 44 49 93 113 50 64 108 139 130 168 163 211
198 255 201 255 2 0 -145 -368 -206 -513 -18 -43 -30 -80 -28 -83 3 -2 137 32
298 76 161 44 295 79 296 77 2 -1 -136 -72 -306 -157 -171 -85 -310 -158 -310
-162 0 -5 8 -8 18 -8 29 0 1124 -189 1130 -195 3 -3 -10 -5 -29 -5 -61 0
-1161 -88 -1166 -93 -4 -5 68 -178 238 -576 27 -63 47 -116 45 -118 -2 -2
-141 112 -308 254 -167 142 -311 264 -320 271 -17 14 -9 26 -261 -403 -313
-534 -387 -659 -395 -667 -5 -5 -5 15 0 49 5 32 40 285 78 563 38 278 73 533
78 568 5 34 5 61 1 60 -4 -2 -87 -73 -185 -158 -202 -175 -849 -734 -879 -759
-24 -20 31 51 603 779 132 167 227 297 220 299 -15 5 -762 -18 -808 -25 -85
-13 8 21 360 131 206 64 412 129 458 143 46 15 77 29 70 33 -7 4 -172 59 -366
124 -194 64 -352 118 -350 120 2 1 199 -12 438 -30 239 -17 436 -31 437 -30 2
1 -40 127 -93 281 -182 530 -168 482 -140 454 28 -30 340 -378 485 -542 57
-65 106 -118 109 -118 8 0 52 43 52 50 0 4 28 65 61 136 56 117 232 502 385
841 32 73 60 129 62 125 1 -5 -34 -242 -77 -528z m-2351 -375 c0 -61 -3 -80
-12 -76 -100 40 -335 142 -342 149 -6 4 72 8 172 8 l182 0 0 -81z m-94 -160
c46 -12 83 -23 82 -25 -6 -6 -502 -143 -506 -140 -2 2 52 36 120 76 68 40 137
81 153 91 38 24 48 24 151 -2z m-1222 -715 c29 -11 17 -21 -61 -49 -243 -85
-415 -283 -511 -586 -87 -274 -80 -617 18 -924 124 -386 393 -692 695 -792 69
-23 97 -27 205 -27 128 0 129 0 285 58 33 12 -55 -61 -120 -99 -213 -127 -483
-109 -715 46 -607 408 -795 1492 -360 2078 77 104 158 173 265 227 105 52 252
86 299 68z m2459 -17 c9 -1 17 -4 17 -8 0 -3 -54 -76 -121 -160 -66 -85 -139
-178 -162 -208 -23 -30 -54 -68 -68 -85 -14 -17 -142 -179 -284 -361 -142
-181 -265 -339 -274 -350 -22 -27 23 10 264 220 116 100 379 329 585 508 206
179 376 320 378 314 1 -7 -38 -302 -87 -657 -49 -355 -89 -646 -87 -647 1 -1
57 94 126 210 68 117 153 262 189 322 186 318 223 381 297 507 43 75 82 136
86 135 4 -1 165 -136 357 -300 193 -163 351 -295 351 -293 0 2 -72 173 -160
380 -88 206 -160 380 -160 386 0 5 6 10 13 10 7 0 96 7 197 17 149 13 324 16
905 17 396 1 734 5 752 10 30 8 33 6 62 -40 27 -41 31 -57 31 -113 0 -88 -30
-151 -102 -217 -75 -68 -181 -121 -378 -188 -173 -60 -430 -155 -442 -165 -4
-4 40 -33 98 -66 62 -35 99 -62 92 -66 -22 -11 -377 -81 -385 -76 -6 4 -49 79
-59 105 -1 1 -157 -58 -348 -132 -978 -383 -1521 -570 -1977 -681 -321 -78
-585 -104 -731 -71 -82 18 -156 59 -164 91 -3 11 2 49 10 85 81 352 9 801
-181 1121 -97 163 -233 312 -360 394 -34 22 -70 46 -80 53 -15 10 147 12 882
6 495 -4 908 -7 918 -7z m-1935 -23 c109 -36 203 -95 300 -188 204 -196 339
-471 394 -806 18 -112 16 -376 -5 -489 -44 -239 -160 -465 -292 -571 -17 -14
-18 -14 -8 5 52 99 115 245 136 311 160 510 14 1134 -350 1499 -41 40 -131
112 -201 161 -70 48 -131 91 -136 96 -22 18 90 6 162 -18z m392 -1818 c0 -2
-14 -41 -31 -86 -42 -110 -106 -192 -212 -270 -105 -79 -351 -28 -538 111 -68
50 -179 162 -179 180 0 5 28 9 63 10 34 0 235 13 447 28 427 31 450 33 450 27z
m-968 -150 c141 -151 277 -235 452 -278 81 -20 86 -23 60 -31 -16 -4 -72 -9
-124 -9 -154 -1 -298 56 -441 175 -57 47 -189 195 -189 211 0 3 26 7 58 9 31
2 68 4 81 5 18 2 43 -18 103 -82z"/>
<path d="M4034 5646 c-44 -19 -132 -153 -112 -171 7 -7 132 -36 278 -65 146
-29 306 -61 357 -73 111 -24 129 -19 203 58 61 66 64 90 13 104 -71 19 -498
122 -588 141 -104 23 -110 24 -151 6z m211 -56 l90 -21 -3 -77 c-2 -42 -5 -78
-6 -79 -5 -6 -351 68 -359 76 -13 13 35 104 63 119 31 16 93 11 215 -18z m355
-85 c80 -20 148 -42 152 -48 10 -16 -22 -65 -58 -88 -40 -24 -66 -24 -189 4
-87 20 -100 25 -98 42 11 122 15 136 31 131 9 -3 82 -21 162 -41z"/>
<path d="M4902 4543 c-33 -71 -99 -209 -147 -307 -66 -137 -85 -186 -80 -205
18 -76 79 -273 82 -265 9 26 211 899 209 902 -2 1 -30 -55 -64 -125z"/>
<path d="M4223 4305 c20 -33 94 -147 274 -422 10 -15 12 -10 12 33 1 51 0 52
-121 202 -68 82 -138 167 -156 188 l-33 39 24 -40z"/>
<path d="M3755 3955 c6 -3 64 -21 130 -40 175 -52 434 -134 478 -151 20 -7 37
-12 37 -9 0 2 -18 32 -40 67 -23 34 -43 72 -46 84 -6 24 -38 29 -269 39 -66 3
-160 7 -210 10 -49 2 -85 2 -80 0z"/>
<path d="M3880 3645 c-92 -40 -117 -54 -95 -54 17 -1 161 8 320 19 160 11 301
20 314 20 53 0 8 9 -169 34 -102 15 -198 29 -215 31 -21 4 -65 -11 -155 -50z"/>
<path d="M4295 3535 c-5 -2 -62 -20 -126 -39 l-116 -36 -132 -159 c-72 -88
-131 -162 -131 -165 0 -3 48 31 108 77 59 46 175 134 257 196 83 63 154 118
160 122 9 9 0 11 -20 4z"/>
<path d="M4968 3494 c-49 -24 -88 -45 -88 -47 0 -1 121 -2 269 -2 148 0 268 1
266 3 -8 9 -313 91 -335 91 -14 0 -64 -20 -112 -45z"/>
<path d="M4790 3446 c0 -3 7 -52 15 -107 l15 -101 102 -104 c56 -57 103 -103
104 -101 3 2 -40 199 -52 238 -5 17 -184 186 -184 175z"/>
<path d="M4526 3329 c-76 -10 -139 -20 -141 -21 -1 -2 -14 -59 -30 -128 -15
-69 -60 -264 -100 -435 -41 -170 -73 -311 -72 -312 1 -1 32 51 68 115 37 64
153 269 258 455 105 186 191 340 191 342 0 7 -15 5 -174 -16z"/>
<path d="M5788 2743 c4 -10 34 -71 66 -135 48 -94 64 -118 80 -117 12 0 70 10
129 23 78 16 105 25 95 33 -20 15 -364 213 -371 213 -4 0 -3 -8 1 -17z"/>
<path d="M5640 5295 c-69 -87 -84 -115 -182 -342 -59 -136 -106 -249 -104
-250 2 -2 31 36 65 84 40 58 103 175 182 342 65 140 118 255 116 257 -1 2 -36
-39 -77 -91z"/>
<path d="M6325 4674 c-88 -46 -251 -130 -362 -186 -120 -61 -207 -112 -215
-125 -7 -12 -37 -47 -67 -77 -29 -31 -48 -56 -42 -56 27 0 419 145 442 164 34
27 378 323 404 347 33 31 7 21 -160 -67z"/>
</g>
</svg>
